# xmcd CD database file
#
# Track frame offsets:
#	150
#	6159
#	12645
#	19196
#	26252
#	34695
#	43087
#	52139
#	59220
#	66518
#	74127
#	80039
#	88661
#	91843
#	101952
#	106928
#
# Disc length: 1532 seconds
#
# Revision: 2
# Processed by: cddbd v1.5.1PL0 Copyright (c) Steve Scherf et al.
# Submitted via: CDex 1.40Release
#
DISCID=e705fa10
DTITLE=Skruigners - La Cosa Che Non Ha Importanza
DYEAR=1998
DGENRE=Punk
TTITLE0=La Cosa Che Non Ha Importanza
TTITLE1=Autodistruzione Cerebrale
TTITLE2=Ricercato
TTITLE3=Autonomo
TTITLE4=Straight Edge
TTITLE5=Non Voglio Essere Niente
TTITLE6=Esaurimento
TTITLE7=Una A Sulla Maglietta
TTITLE8=Anime In Festa
TTITLE9=Delusione Cronica
TTITLE10=Un Altro Cane
TTITLE11=Non E' Un'Assurdità
TTITLE12=No!
TTITLE13=Soltanto Tu
TTITLE14=Rivoluzione Nella Classe
TTITLE15=Jello Fa Stage Diving
EXTD=YEAR: 1998 ID3G: 43
EXTT0=
EXTT1=
EXTT2=
EXTT3=
EXTT4=
EXTT5=
EXTT6=
EXTT7=
EXTT8=
EXTT9=
EXTT10=
EXTT11=
EXTT12=
EXTT13=
EXTT14=
EXTT15=
PLAYORDER=
